<svg width="148" height="148" viewBox="0 0 148 148" fill="none" xmlns="http://www.w3.org/2000/svg">
<path d="M49.07 81.41V99.1C62.1536 99.0841 74.6967 93.8797 83.9482 84.6282C93.1997 75.3767 98.4041 62.8336 98.42 49.75H80.78C80.7668 58.1513 77.42 66.2041 71.4747 72.14C65.5294 78.076 57.4714 81.41 49.07 81.41Z" fill="#3BE081"/>
<path d="M49.07 130.16C40.8327 130.013 32.9824 126.638 27.209 120.76C21.4355 114.883 18.2007 106.974 18.2007 98.735C18.2007 90.4963 21.4355 82.5871 27.209 76.7097C32.9824 70.8324 40.8327 67.4569 49.07 67.31V49.76C36.0744 49.7414 23.6037 54.8861 14.4013 64.0623C5.19891 73.2384 0.0186152 85.6944 5.00717e-05 98.69C-0.0185151 111.686 5.12617 124.156 14.3023 133.359C23.4785 142.561 35.9344 147.741 48.93 147.76H49.07V130.16Z" fill="#0037FF"/>
<path d="M49.07 130.16V147.71C62.0656 147.71 74.529 142.548 83.7182 133.358C92.9075 124.169 98.07 111.706 98.07 98.71H80.5C80.4974 107.047 77.1858 115.042 71.2927 120.939C65.3995 126.835 57.4068 130.152 49.07 130.16Z" fill="#00CCFF"/>
<path d="M49.07 32.19V49.75C62.0656 49.75 74.529 44.5875 83.7182 35.3982C92.9075 26.209 98.07 13.7456 98.07 0.75H80.5C80.4947 9.08505 77.182 17.0773 71.2891 22.9721C65.3963 28.8668 57.4051 32.1821 49.07 32.19Z" fill="#861DFF"/>
<path d="M98.37 32.19V49.75C111.366 49.75 123.829 44.5875 133.018 35.3982C142.208 26.209 147.37 13.7456 147.37 0.75H129.78C129.775 9.08159 126.465 17.0709 120.576 22.965C114.688 28.8591 106.702 32.1768 98.37 32.19Z" fill="#FC7F10"/>
</svg>
